<svg width="800" height="500" xmlns="http://www.w3.org/2000/svg">
  <defs>
    <linearGradient id="bgGradient" x1="0%" y1="0%" x2="100%" y2="100%">
      <stop offset="0%" style="stop-color:#0066FF;stop-opacity:0.9" />
      <stop offset="100%" style="stop-color:#0040A0;stop-opacity:1" />
    </linearGradient>
    <filter id="shadow" x="-20%" y="-20%" width="140%" height="140%">
      <feDropShadow dx="0" dy="4" stdDeviation="10" flood-color="rgba(0,0,0,0.3)" />
    </filter>
  </defs>
  <!-- 背景 -->
  <rect width="800" height="500" fill="url(#bgGradient)" />
  
  <!-- 装饰元素 -->
  <circle cx="700" cy="100" r="80" fill="rgba(255,255,255,0.05)" />
  <circle cx="100" cy="400" r="60" fill="rgba(255,255,255,0.05)" />
  <path d="M0,0 L200,0 L200,5 L5,5 Z" fill="rgba(255,255,255,0.1)" />
  <path d="M795,495 L800,495 L800,500 L600,500 L600,495 Z" fill="rgba(255,255,255,0.1)" />
  
  <!-- 顶部标签 --<rect x="320" y="50" width="160" height="40" rx="20" fill="#FF6B00" filter="url(#shadow)" />
  <text x="400" y="75" font-family="-apple-system, BlinkMacSystemFont, 'Segoe UI', Arial, sans-serif" font-size="18" font-weight="bold" fill="white" text-anchor="middle" dominant-baseline="middle">开源效率工具</text>
  
  <!-- 主标题 --<text x="400" y="200" font-family="-apple-system, BlinkMacSystemFont, 'Segoe UI', Arial, sans-serif" font-size="36" font-weight="bold" fill="white" text-anchor="middle" dominant-baseline="middle" filter="url(#shadow)">6.3K Star! Handy让本地语音转文字</text>
  <text x="400" y="260" font-family="-apple-system, BlinkMacSystemFont, 'Segoe UI', Arial, sans-serif" font-size="36" font-weight="bold" fill="white" text-anchor="middle" dominant-baseline="middle" filter="url(#shadow)">准确率达92%</text>
  
  <!-- 技术图标 --<circle cx="250" cy="350" r="40" fill="rgba(255,255,255,0.15)" stroke="white" stroke-width="2" />
  <path d="M230,330 L250,350 L270,330" stroke="white" stroke-width="4" fill="none" />
  <circle cx="250" cy="370" r="15" stroke="white" stroke-width="4" fill="none" />
  
  <!-- 卖点图标 --<rect x="350" y="330" width="80" height="40" rx="20" fill="rgba(255,255,255,0.15)" stroke="white" stroke-width="2" />
  <text x="390" y="355" font-family="-apple-system, BlinkMacSystemFont, 'Segoe UI', Arial, sans-serif" font-size="16" font-weight="bold" fill="white" text-anchor="middle" dominant-baseline="middle">本地处理</text>
  
  <!-- 卖点图标2 --<rect x="470" y="330" width="80" height="40" rx="20" fill="rgba(255,255,255,0.15)" stroke="white" stroke-width="2" />
  <text x="510" y="355" font-family="-apple-system, BlinkMacSystemFont, 'Segoe UI', Arial, sans-serif" font-size="16" font-weight="bold" fill="white" text-anchor="middle" dominant-baseline="middle">免费开源</text>
  
  <!-- 底部标签 --<rect x="250" y="430" width="300" height="40" rx="20" fill="rgba(255,255,255,0.2)" stroke="white" stroke-width="1" />
  <text x="400" y="455" font-family="-apple-system, BlinkMacSystemFont, 'Segoe UI', Arial, sans-serif" font-size="18" font-weight="bold" fill="white" text-anchor="middle" dominant-baseline="middle">Handy 语音转文字神器 | 保护隐私 | 极速转写</text>
</svg>